<!-- Generator: Adobe Illustrator 18.0.0, SVG Export Plug-In  -->
<svg version="1.1"
	 xmlns="http://www.w3.org/2000/svg" xmlns:xlink="http://www.w3.org/1999/xlink" xmlns:a="http://ns.adobe.com/AdobeSVGViewerExtensions/3.0/"
	 x="0px" y="0px" width="121.3px" height="120.7px" viewBox="0 0 121.3 120.7" enable-background="new 0 0 121.3 120.7"
	 xml:space="preserve">
<defs>
</defs>
<g>
	<path fill="#4FB99F" stroke="#231F20" stroke-width="0.25" stroke-miterlimit="10" d="M40.2,120.5V64.3h-8.9
		c-9.6,0-17.7,4.3-20.1,10.6c-0.5,1.3-0.7,2.6-0.7,4v17.2v9.4c0,8.2,9.3,15,20.9,15H40.2z"/>
	<path fill="#4FB99F" stroke="#231F20" stroke-width="0.25" stroke-miterlimit="10" d="M110.8,96.1V78.9c0-1.8-0.6-3.5-1.4-5
		c-2.9-5.7-10.6-9.6-19.7-9.6H81v56.2h8.6c11.6,0,21.1-6.7,21.1-15V96.1z"/>
	<text transform="matrix(1 0 0 1 43.6067 89.7022)" font-family="'Exo-Regular'" font-size="16.2906">Feel</text>
	<text transform="matrix(1 0 0 1 44.7141 112.5069)" font-family="'Exo-Regular'" font-size="16.2906">Bits</text>
	<text transform="matrix(1 0 0 1 55.9539 96.2833)" font-family="'Exo-Regular'" font-size="5.3159">the</text>
	<rect x="64.9" y="94.6" width="13.6" height="0.2"/>
	<rect x="41.8" y="94.6" width="13.6" height="0.2"/>
	<path fill="#4FB99F" stroke="#151E28" stroke-width="0.25" stroke-miterlimit="10" d="M121.2,91.8V10.3c0-5.6-4.5-10.1-10.1-10.1
		H10.3C4.7,0.1,0.1,4.7,0.1,10.3v81.5c0,1.6,1.3,3,3,3h0.7c1.6,0,3-1.3,3-3V76.7c0-3.8,1.3-7.3,3.8-10.4c0.4-0.5,0.7-1.2,0.7-1.9
		l0-47.6c0-2.8,2.3-5.1,5.1-5.1H105c2.8,0,5.1,2.3,5.1,5.1v47.1c0,0.7,0.3,1.4,0.7,2c2.8,3.2,4.5,6.9,4.5,10.8v15.1c0,1.6,1.3,3,3,3
		h0C119.8,94.8,121.2,93.4,121.2,91.8z"/>
</g>
</svg>
